<?xml version="1.0" encoding="utf-8"?>
<!-- Generator: Adobe Illustrator 16.0.0, SVG Export Plug-In . SVG Version: 6.00 Build 0)  -->
<!DOCTYPE svg PUBLIC "-//W3C//DTD SVG 1.1//EN" "http://www.w3.org/Graphics/SVG/1.1/DTD/svg11.dtd">
<svg version="1.1" id="Layer_2" xmlns="http://www.w3.org/2000/svg" xmlns:xlink="http://www.w3.org/1999/xlink" x="0px" y="0px"
	 width="322.96px" height="322.96px" viewBox="144 234.19 322.96 322.96" enable-background="new 144 234.19 322.96 322.96"
	 xml:space="preserve">
<path d="M305.48,234.19C216.3,234.19,144,306.48,144,395.669c0,89.18,72.3,161.48,161.48,161.48s161.48-72.301,161.48-161.48
	C466.96,306.48,394.66,234.19,305.48,234.19z M295.75,530.691c-78.56,0-142.25-63.691-142.25-142.251
	c0-78.569,63.69-142.25,142.25-142.25c78.561,0,142.25,63.681,142.25,142.25C438,467,374.31,530.691,295.75,530.691z"/>
<path d="M284.25,258.19c-65.58,0-118.75,53.16-118.75,118.75c0,65.581,53.17,118.751,118.75,118.751S403,442.519,403,376.94
	C403,311.35,349.83,258.19,284.25,258.19z M213.27,405.52c0,0.79-0.13,1.489-0.38,2.11c-0.26,0.619-0.6,1.129-1.04,1.55
	c-0.44,0.42-0.95,0.739-1.54,0.96c-0.58,0.23-1.21,0.341-1.88,0.341c-0.671,0-1.31-0.11-1.9-0.341c-0.59-0.221-1.1-0.54-1.54-0.96
	c-0.439-0.421-0.779-0.931-1.039-1.55c-0.25-0.621-0.381-1.32-0.381-2.11v-3.771c0-0.75,0.131-1.42,0.381-2.029
	c0.26-0.6,0.6-1.12,1.039-1.561c0.44-0.439,0.95-0.771,1.54-1.01c0.591-0.23,1.22-0.352,1.88-0.352c0.601,0,1.17,0.102,1.711,0.301
	c0.549,0.189,1.039,0.48,1.459,0.852c0.431,0.379,0.791,0.84,1.08,1.379c0.291,0.551,0.49,1.18,0.59,1.891h-1.77
	c-0.141-0.83-0.46-1.471-0.949-1.92c-0.49-0.461-1.221-0.689-2.201-0.689c-0.899,0-1.59,0.18-2.06,0.551
	c-0.479,0.369-0.79,0.879-0.931,1.529c-0.02,0.141-0.039,0.359-0.059,0.68c-0.021,0.321-0.041,0.641-0.051,0.971
	s-0.02,0.641-0.02,0.939c0,0.141,0,0.35,0.01,0.641c0.01,0.3,0.01,0.64,0.02,1.021c0,0.39,0.021,0.729,0.041,1.011
	c0.02,0.289,0.029,0.479,0.039,0.58c0.141,0.659,0.45,1.188,0.93,1.568c0.471,0.381,1.211,0.57,2.201,0.57
	c0.729,0,1.309-0.11,1.729-0.33c0.42-0.211,0.739-0.5,0.95-0.87c0.22-0.37,0.359-0.81,0.41-1.319c0.06-0.5,0.09-1.04,0.09-1.619
	h-3.141v-1.791h4.78V405.52z M224.75,402.589v1.812h-5.39v4.08h7.2v1.81h-8.99v-13.34h8.99v1.791h-7.2v3.85h5.39V402.589z
	 M220.6,425.64c0.021,0.551,0.06,0.932,0.11,1.141c0.14,0.648,0.43,1.16,0.869,1.529c0.45,0.369,1.141,0.551,2.08,0.551
	c0.551,0,1.01-0.061,1.391-0.189c0.38-0.131,0.689-0.32,0.93-0.57c0.25-0.26,0.42-0.568,0.54-0.939
	c0.11-0.379,0.181-0.811,0.21-1.311h1.79c0,0.73-0.13,1.381-0.39,1.971s-0.621,1.1-1.061,1.529c-0.439,0.42-0.96,0.75-1.54,0.98
	c-0.59,0.229-1.21,0.34-1.87,0.34s-1.289-0.121-1.88-0.35c-0.59-0.24-1.1-0.57-1.54-1.012c-0.439-0.439-0.779-0.961-1.039-1.568
	c-0.25-0.611-0.381-1.291-0.381-2.021v-3.66c0-0.791,0.12-1.489,0.36-2.1c0.239-0.621,0.579-1.141,1-1.561
	c0.43-0.42,0.94-0.74,1.54-0.96c0.59-0.222,1.25-0.33,1.96-0.33c0.68,0,1.31,0.101,1.88,0.3c0.58,0.211,1.07,0.5,1.5,0.891
	s0.77,0.859,1.02,1.431c0.25,0.56,0.4,1.21,0.44,1.931h-1.79c-0.08-0.892-0.37-1.57-0.87-2.041c-0.5-0.47-1.25-0.699-2.239-0.699
	c-0.471,0-0.871,0.061-1.221,0.18c-0.34,0.12-0.63,0.279-0.859,0.49c-0.24,0.209-0.431,0.459-0.57,0.74
	c-0.141,0.279-0.24,0.58-0.301,0.91v0.02c-0.029,0.15-0.049,0.48-0.069,0.99s-0.03,1.059-0.03,1.67
	C220.57,424.519,220.58,425.099,220.6,425.64z M240.089,410.27h-1.869l-2.68-5.789h-2.771v5.789h-1.81V396.9h5.51
	c0.52,0,1.01,0.09,1.48,0.29c0.459,0.199,0.859,0.47,1.209,0.81c0.34,0.34,0.61,0.75,0.811,1.211
	c0.189,0.459,0.289,0.959,0.289,1.479c0,0.438-0.069,0.858-0.219,1.261c-0.141,0.398-0.351,0.76-0.61,1.09
	c-0.261,0.319-0.56,0.6-0.91,0.84c-0.351,0.229-0.74,0.399-1.16,0.5L240.089,410.27z M242.14,425.769
	c0,0.791-0.131,1.49-0.381,2.111c-0.26,0.619-0.609,1.129-1.049,1.549c-0.451,0.42-0.961,0.74-1.541,0.961
	c-0.59,0.23-1.219,0.342-1.89,0.342c-0.659,0-1.29-0.111-1.88-0.342c-0.59-0.221-1.1-0.541-1.54-0.961s-0.78-0.93-1.04-1.549
	c-0.25-0.621-0.38-1.32-0.38-2.111V422c0-0.75,0.13-1.42,0.38-2.029c0.26-0.6,0.6-1.12,1.04-1.561c0.44-0.439,0.95-0.771,1.54-1.01
	c0.59-0.23,1.221-0.352,1.88-0.352c0.671,0,1.3,0.121,1.89,0.352c0.58,0.239,1.09,0.568,1.541,1.01
	c0.439,0.439,0.789,0.961,1.049,1.561c0.25,0.609,0.381,1.279,0.381,2.029V425.769z M228.589,387.75c-0.35,1-0.84,1.711-1.479,2.15
	c-0.601,0.41-1.601,0.7-3.13,0.92c-0.96,0.141-1.74,0.21-2.38,0.21c-0.58,0-1.04-0.06-1.41-0.17c-0.62-0.2-1.47-0.72-1.96-2.05
	l-15.91-39.66c-0.49-1.25-1.05-2.26-1.66-3.02c-0.74-0.93-1.199-1.311-1.459-1.461c-0.57-0.34-1.061-0.75-1.461-1.209
	c-0.5-0.57-0.75-1.271-0.75-2.101c0-1.44,0.75-2.149,1.391-2.489c0.729-0.4,1.85-0.59,3.43-0.59h11.59c3.88,0,4.46,1.889,4.46,3.01
	c0,1.049-0.53,1.97-1.55,2.75c-0.68,0.5-1.189,1-1.51,1.459c-0.01,0.011-0.271,0.561,0.43,3.011l10.689,27.239l10.461-27.609
	c0.689-2.381,0.479-2.95,0.47-2.971c-0.229-0.439-0.62-0.92-1.16-1.42c-0.83-0.76-1.25-1.619-1.25-2.529c0-1.07,0.55-2.87,4.24-2.87
	h6.479c2.811,0,4.03,0.78,4.5,1.7c1.541-1.23,3.211-1.85,4.98-1.85h0.199c1.561,0.059,2.871,0.619,3.92,1.67
	c1.051,1.049,1.591,2.35,1.591,3.869c-0.06,2.041-1.03,3.87-2.87,5.44c-1.76,1.5-3.68,2.26-5.721,2.26h-0.219
	c-1.611-0.06-2.931-0.61-3.9-1.649c-0.98-1.041-1.45-2.311-1.391-3.791c0.01-0.27,0.03-0.529,0.07-0.799
	c-0.3,0.25-0.619,0.569-0.96,0.939c-0.659,0.73-1.22,1.641-1.649,2.73L228.589,387.75z M251.75,402.589v1.812h-5.39v4.08h7.2v1.81
	h-8.99v-13.34h8.99v1.791h-7.2v3.85h5.39V402.589z M255.951,430.541h-3.541l-3.72-11.531h-0.46v11.531h-1.79v-13.34h3.55
	l3.711,11.568h0.459v-11.568h1.791V430.541z M259.75,398.759v11.531h-1.789v-13.34h3.539l3.721,11.568h0.449v-11.568h1.791v13.34
	h-3.541l-3.709-11.531H259.75z M270.35,426c0,0.631-0.11,1.211-0.33,1.77c-0.229,0.553-0.53,1.031-0.92,1.432
	c-0.39,0.41-0.851,0.729-1.38,0.971c-0.53,0.25-1.11,0.369-1.73,0.369h-5.34v-13.319h5.15c0.63,0,1.229,0.12,1.779,0.351
	c0.551,0.239,1.03,0.561,1.44,0.971c0.399,0.42,0.729,0.899,0.97,1.439c0.24,0.551,0.36,1.141,0.36,1.77V426L270.35,426z
	 M272.169,407.49c-0.26-0.609-0.379-1.289-0.379-2.021v-3.659c0-0.79,0.119-1.489,0.359-2.101c0.24-0.619,0.57-1.14,1-1.56
	c0.42-0.42,0.939-0.739,1.53-0.96c0.6-0.221,1.25-0.33,1.97-0.33c0.68,0,1.311,0.1,1.88,0.301c0.57,0.209,1.07,0.5,1.5,0.889
	c0.421,0.392,0.761,0.861,1.021,1.432c0.25,0.561,0.4,1.21,0.43,1.93h-1.79c-0.069-0.891-0.36-1.57-0.86-2.039
	c-0.51-0.471-1.25-0.701-2.24-0.701c-0.469,0-0.879,0.062-1.219,0.181c-0.341,0.12-0.631,0.28-0.871,0.489
	c-0.229,0.211-0.42,0.461-0.56,0.74c-0.14,0.28-0.239,0.58-0.3,0.91v0.02c-0.03,0.15-0.051,0.48-0.07,0.99s-0.029,1.061-0.029,1.67
	c0,0.601,0.01,1.181,0.029,1.721c0.02,0.551,0.051,0.931,0.1,1.141c0.141,0.648,0.431,1.16,0.881,1.529
	c0.439,0.369,1.14,0.551,2.08,0.551c0.539,0,1.01-0.061,1.39-0.189s0.69-0.32,0.931-0.57c0.239-0.26,0.42-0.569,0.529-0.939
	c0.12-0.38,0.189-0.811,0.21-1.311h1.79c0,0.73-0.13,1.381-0.391,1.971c-0.26,0.59-0.609,1.1-1.049,1.529
	c-0.451,0.42-0.961,0.75-1.551,0.98c-0.58,0.229-1.199,0.34-1.859,0.34s-1.291-0.121-1.881-0.351
	c-0.59-0.239-1.109-0.569-1.539-1.011C272.77,408.621,272.419,408.1,272.169,407.49z M283.97,425.769
	c0,0.791-0.131,1.49-0.381,2.111c-0.26,0.619-0.6,1.129-1.049,1.549c-0.44,0.42-0.961,0.74-1.541,0.961
	c-0.59,0.23-1.209,0.342-1.89,0.342c-0.659,0-1.28-0.111-1.87-0.342c-0.59-0.221-1.109-0.541-1.55-0.961
	c-0.431-0.42-0.78-0.93-1.03-1.549c-0.26-0.621-0.39-1.32-0.39-2.111V422c0-0.75,0.13-1.42,0.39-2.029c0.25-0.6,0.6-1.12,1.03-1.561
	c0.44-0.439,0.96-0.771,1.55-1.01c0.59-0.23,1.211-0.352,1.87-0.352c0.681,0,1.3,0.121,1.89,0.352
	c0.58,0.239,1.101,0.568,1.541,1.01c0.449,0.439,0.789,0.961,1.049,1.561c0.25,0.609,0.381,1.279,0.381,2.029V425.769z
	 M265.541,390.69c-1.58,0-2.381-0.63-2.781-1.21c-0.549,0.66-1.609,1.21-3.629,1.21H248.83c-3.75,0-4.31-1.8-4.31-2.87
	c0-0.93,0.28-1.71,0.83-2.33c0.45-0.5,0.93-0.91,1.45-1.23c0.09-0.049,0.4-0.299,0.82-1.299c0.33-0.78,0.5-1.891,0.5-3.28
	l-0.07-13.25c0-0.95-0.15-1.761-0.45-2.39c-0.36-0.781-0.681-1.07-0.83-1.17c-0.49-0.33-0.94-0.701-1.351-1.101
	c-0.539-0.55-0.83-1.229-0.83-1.97c0-0.76,0.281-1.41,0.791-1.891c0.399-0.359,1.06-0.76,2.09-1.25c1.449-0.72,3.279-1.459,5.4-2.17
	c2.92-0.97,3.84-1.09,4.319-1.09c0.021,0,0.11-0.01,0.21-0.01c1.051,0,1.63,0.48,1.92,0.88c0.4,0.55,0.6,1.3,0.6,2.29l-0.08,9.87
	v13.25c0,1.399,0.16,2.51,0.471,3.3c0.391,0.98,0.699,1.23,0.779,1.279c0.531,0.33,1.021,0.771,1.451,1.311
	c0.189,0.24,0.34,0.5,0.459,0.78c0.051-0.08,18.931-25.771,18.931-25.771h-3.64c-3.631,0-7.061,1.78-10.211,5.291
	c-0.99,1.08-2,1.629-2.99,1.629c-0.369,0-0.739-0.08-1.09-0.22c-1.27-0.56-1.68-1.95-1.24-4.149c0.471-1.57,1.181-3.4,2.16-5.541
	c0.49-1.199,1.07-2.06,1.771-2.609c0.74-0.58,1.75-0.859,3.101-0.859H295c1.721,0,2.51,0.739,2.881,1.359
	c0.379,0.66,0.6,1.75-0.51,3.2l-18.761,25.54h4.79c3.67,0,6.75-1.86,9.41-5.69c0.96-1.42,2.029-2.14,3.189-2.14
	c0.23,0,0.451,0.029,0.681,0.08l0.09,0.029c1.771,0.641,1.421,3.19,1.3,4.03c-0.189,1.72-0.67,3.771-1.4,6.08
	c-1.01,3.37-3.149,4.08-4.77,4.08H265.541L265.541,390.69z M285.41,408.5h1.6v-9.76h-1.6v-1.789h4.99v1.789h-1.6v9.76h1.6v1.791
	h-4.99V408.5z M301.419,430.541h-1.809v-11.531h-0.23l-3.051,11.531H293.3l-2.99-11.531h-0.23v11.531h-1.799v-13.32h3.459
	l2.971,11.512h0.209l3.051-11.512h3.449V430.541z M303.691,398.74h-7.201v3.85h5.4v1.812h-5.4v4.08h7.201v1.81h-8.99v-13.34h8.99
	V398.74z M310.71,418.99h-1.59v9.76h1.59v1.791h-4.99v-1.791h1.6v-9.76h-1.6v-1.789h4.99V418.99z M324.531,430.541h-3.551
	l-3.711-11.531h-0.461v11.531h-1.789v-13.34h3.539l3.723,11.568h0.459v-11.568h1.791V430.541L324.531,430.541z M325.541,406.44
	c-0.01,0.271-0.061,0.619-0.15,1.069c-0.09,0.439-0.291,0.88-0.6,1.3c-0.311,0.431-0.76,0.79-1.35,1.11
	c-0.592,0.311-1.4,0.459-2.41,0.459c-0.781,0-1.48-0.1-2.111-0.31c-0.639-0.21-1.18-0.511-1.619-0.909
	c-0.43-0.392-0.77-0.871-1.01-1.441c-0.25-0.579-0.371-1.219-0.371-1.949v-0.26h1.781c0.1,1.061,0.42,1.84,0.959,2.33
	c0.541,0.49,1.26,0.729,2.18,0.729c0.33,0,0.67-0.021,1.01-0.069c0.342-0.051,0.65-0.16,0.932-0.311
	c0.279-0.15,0.51-0.359,0.689-0.62c0.182-0.261,0.262-0.601,0.262-1.021c0-0.621-0.182-1.09-0.541-1.42
	c-0.359-0.32-0.811-0.58-1.352-0.78c-0.539-0.188-1.129-0.359-1.76-0.5c-0.641-0.14-1.23-0.341-1.771-0.591
	c-0.527-0.26-0.988-0.608-1.35-1.049c-0.361-0.441-0.539-1.07-0.539-1.871c0-0.56,0.1-1.06,0.299-1.5
	c0.211-0.449,0.49-0.819,0.861-1.129c0.369-0.301,0.809-0.531,1.34-0.69c0.52-0.159,1.09-0.239,1.729-0.239
	c1.311,0,2.359,0.34,3.16,1.02c0.801,0.682,1.23,1.67,1.301,2.961h-1.779c-0.141-0.801-0.432-1.359-0.871-1.689
	c-0.449-0.33-1.029-0.5-1.75-0.5c-0.729,0-1.32,0.141-1.789,0.43c-0.461,0.291-0.689,0.711-0.689,1.291c0,0.479,0.18,0.85,0.551,1.1
	c0.369,0.261,0.83,0.471,1.379,0.65c0.551,0.178,1.148,0.35,1.791,0.51c0.639,0.17,1.238,0.399,1.77,0.689
	c0.539,0.29,0.98,0.68,1.32,1.148c0.34,0.48,0.5,1.102,0.5,1.881V406.44L325.541,406.44z M300.25,390.69
	c-1.719,0-2.52-0.739-2.879-1.36c-0.381-0.66-0.611-1.75,0.5-3.199l18.77-25.551H313c-3.619,0-7.059,1.78-10.199,5.291
	c-1,1.08-2,1.629-3,1.629c-0.371,0-0.74-0.08-1.09-0.219c-1.271-0.561-1.681-1.951-1.24-4.15c0.471-1.57,1.189-3.4,2.16-5.541
	c0.49-1.199,1.07-2.059,1.77-2.609c0.74-0.58,1.75-0.859,3.1-0.859h25.211c1.719,0,2.51,0.739,2.879,1.359
	c0.381,0.66,0.602,1.75-0.5,3.2l-18.77,25.54h4.791c3.67,0,6.75-1.86,9.408-5.689c0.961-1.421,2.039-2.141,3.189-2.141
	c0.23,0,0.461,0.029,0.68,0.08l0.092,0.029c1.779,0.641,1.42,3.19,1.311,4.031c-0.201,1.729-0.68,3.779-1.41,6.079
	c-1,3.37-3.148,4.08-4.77,4.08H300.25z M337.05,402.589v1.812h-5.391v4.08h7.201v1.81h-8.99v-13.34h8.99v1.791h-7.201v3.85h5.391
	V402.589z M333.839,418.99h-1.6v9.76h1.6v1.791h-4.99v-1.791h1.602v-9.76h-1.602v-1.789h4.99V418.99z M347.46,425.769
	c0,0.791-0.131,1.49-0.381,2.111c-0.25,0.619-0.6,1.129-1.049,1.549c-0.441,0.42-0.961,0.74-1.541,0.961
	c-0.58,0.23-1.209,0.342-1.891,0.342c-0.658,0-1.279-0.111-1.869-0.342c-0.592-0.221-1.109-0.541-1.551-0.961
	c-0.43-0.42-0.779-0.93-1.029-1.549c-0.262-0.621-0.381-1.32-0.381-2.111V422c0-0.75,0.119-1.42,0.381-2.029
	c0.25-0.6,0.6-1.12,1.029-1.561c0.439-0.439,0.959-0.771,1.551-1.01c0.59-0.23,1.211-0.352,1.869-0.352
	c0.682,0,1.311,0.121,1.891,0.352c0.58,0.239,1.1,0.568,1.541,1.01c0.449,0.439,0.799,0.961,1.049,1.561
	c0.25,0.609,0.381,1.279,0.381,2.029V425.769z M352.9,410.291h-9.641v-13.34h1.789V408.5h6.063v-11.549h1.789V410.291L352.9,410.291
	z M365.371,385.69c-3.9,3.79-8.9,5.72-14.852,5.72c-5.141,0-9.449-1.619-12.818-4.81c-3.393-3.21-5.111-7.53-5.111-12.83
	c0-5.681,2.021-10.54,5.99-14.46s8.979-5.91,14.891-5.91c5.15,0,9.449,1.721,12.779,5.131c3.32,3.389,5,7.699,5,12.789
	C371.25,377.05,369.269,381.88,365.371,385.69z"/>
<path d="M359.669,376.36c0,2.479-0.549,4.53-1.619,6.101c-1.01,1.479-2.461,2.189-4.43,2.189c-2.68,0-4.861-1.46-6.67-4.48
	c-1.893-3.14-2.852-6.84-2.852-11.01c0-2.63,0.539-4.85,1.619-6.6c0.99-1.62,2.461-2.41,4.512-2.41c2.609,0,4.77,1.57,6.578,4.79
	C358.71,368.3,359.669,372.14,359.669,376.36z"/>
<path d="M345.71,423.96c0,0.43,0,0.85-0.01,1.23c-0.01,0.389-0.021,0.729-0.031,1.01c-0.01,0.289-0.029,0.479-0.059,0.58
	c-0.143,0.66-0.441,1.188-0.91,1.568c-0.471,0.381-1.182,0.57-2.131,0.57c-0.939,0-1.641-0.189-2.08-0.57
	c-0.449-0.381-0.74-0.908-0.879-1.568v-0.012c-0.012-0.109-0.031-0.301-0.041-0.59c-0.021-0.279-0.039-0.609-0.039-1
	c-0.012-0.381-0.012-0.791-0.012-1.221c0-0.439,0-0.859,0.012-1.26c0-0.4,0.02-0.76,0.049-1.08c0.02-0.32,0.041-0.539,0.07-0.68
	c0.141-0.65,0.43-1.16,0.881-1.529c0.438-0.371,1.129-0.551,2.068-0.551s1.641,0.189,2.092,0.561
	c0.447,0.379,0.75,0.879,0.889,1.521c0.031,0.14,0.061,0.358,0.08,0.681c0.02,0.32,0.031,0.68,0.041,1.08
	C345.71,423.099,345.71,423.519,345.71,423.96z"/>
<path d="M238.451,400.69c0,0.278-0.051,0.54-0.15,0.778c-0.1,0.24-0.25,0.451-0.43,0.631c-0.181,0.17-0.4,0.32-0.641,0.42
	c-0.24,0.109-0.49,0.171-0.76,0.171h-3.7v-4h3.7c0.27,0,0.52,0.05,0.76,0.149c0.24,0.101,0.46,0.24,0.641,0.43
	c0.18,0.182,0.33,0.391,0.43,0.641C238.4,400.15,238.451,400.41,238.451,400.69z"/>
<path d="M282.22,423.96c0,0.43-0.01,0.85-0.01,1.23c-0.01,0.389-0.021,0.729-0.03,1.01c-0.011,0.289-0.03,0.479-0.06,0.58
	c-0.141,0.66-0.44,1.188-0.91,1.568c-0.471,0.381-1.181,0.57-2.141,0.57c-0.939,0-1.63-0.189-2.07-0.57
	c-0.449-0.381-0.74-0.908-0.879-1.568v-0.012c-0.011-0.109-0.031-0.301-0.051-0.59c-0.01-0.279-0.029-0.609-0.029-1
	c-0.011-0.381-0.011-0.791-0.011-1.221c0-0.439,0-0.859,0.011-1.26c0-0.4,0.02-0.76,0.039-1.08c0.03-0.32,0.051-0.539,0.08-0.68
	c0.141-0.65,0.43-1.16,0.881-1.529c0.439-0.371,1.129-0.551,2.069-0.551s1.64,0.189,2.091,0.561
	c0.449,0.379,0.739,0.879,0.879,1.521c0.041,0.14,0.07,0.358,0.09,0.681c0.021,0.32,0.031,0.68,0.041,1.08
	C282.21,423.099,282.22,423.519,282.22,423.96z"/>
<path d="M268.56,421.75V426c0,0.84-0.25,1.51-0.73,2c-0.49,0.5-1.17,0.75-2.029,0.75h-3.36v-9.76h3.45c0.85,0,1.51,0.26,1.97,0.76
	C268.33,420.259,268.56,420.93,268.56,421.75z"/>
<path d="M240.39,423.96c0,0.43-0.01,0.85-0.01,1.23c-0.01,0.389-0.021,0.729-0.03,1.01c-0.021,0.289-0.03,0.479-0.06,0.58
	c-0.141,0.66-0.44,1.188-0.91,1.568c-0.471,0.381-1.19,0.57-2.141,0.57c-0.939,0-1.63-0.189-2.07-0.57
	c-0.449-0.381-0.739-0.908-0.879-1.568v-0.012c-0.011-0.109-0.031-0.301-0.051-0.59c-0.02-0.279-0.029-0.609-0.039-1
	c0-0.381-0.011-0.791-0.011-1.221c0-0.439,0.011-0.859,0.011-1.26c0.01-0.4,0.029-0.76,0.049-1.08c0.03-0.32,0.051-0.539,0.08-0.68
	c0.141-0.65,0.43-1.16,0.871-1.529c0.449-0.371,1.139-0.551,2.079-0.551s1.64,0.189,2.091,0.561
	c0.449,0.379,0.739,0.879,0.879,1.521c0.041,0.14,0.07,0.358,0.09,0.681c0.021,0.32,0.031,0.68,0.041,1.08
	C240.38,423.099,240.39,423.519,240.39,423.96z"/>
</svg>
