<?xml version="1.0" encoding="utf-8"?>
<!-- Generator: Adobe Illustrator 16.0.0, SVG Export Plug-In . SVG Version: 6.00 Build 0)  -->
<!DOCTYPE svg PUBLIC "-//W3C//DTD SVG 1.1//EN" "http://www.w3.org/Graphics/SVG/1.1/DTD/svg11.dtd">
<svg version="1.1" id="Layer_2" xmlns="http://www.w3.org/2000/svg" xmlns:xlink="http://www.w3.org/1999/xlink" x="0px" y="0px"
	 width="322.96px" height="322.96px" viewBox="0 0 322.96 322.96" enable-background="new 0 0 322.96 322.96" xml:space="preserve">
<path fill="#FD8042" d="M161.48,0C72.3,0,0,72.291,0,161.48c0,89.18,72.3,161.48,161.48,161.48s161.48-72.301,161.48-161.48
	C322.96,72.291,250.66,0,161.48,0z M151.75,296.501C73.19,296.501,9.5,232.81,9.5,154.25C9.5,75.681,73.19,12,151.75,12
	C230.31,12,294,75.681,294,154.25C294,232.81,230.31,296.501,151.75,296.501z"/>
<path fill="#0046FD" d="M140.25,261.501c-65.58,0-118.75-53.172-118.75-118.751C21.5,77.161,74.669,24,140.25,24
	S259,77.161,259,142.75C259,208.33,205.83,261.501,140.25,261.501z M151.75,12C73.19,12,9.5,75.681,9.5,154.25
	c0,78.56,63.69,142.251,142.25,142.251C230.31,296.501,294,232.81,294,154.25C294,75.681,230.31,12,151.75,12z"/>
<path fill="#021BB9" d="M140.25,24C74.669,24,21.5,77.161,21.5,142.75c0,65.581,53.17,118.751,118.75,118.751S259,208.33,259,142.75
	C259,77.161,205.83,24,140.25,24z M69.27,171.331c0,0.79-0.13,1.489-0.38,2.11c-0.26,0.619-0.6,1.129-1.04,1.55
	c-0.44,0.42-0.95,0.739-1.54,0.96c-0.58,0.23-1.21,0.341-1.88,0.341c-0.671,0-1.31-0.11-1.9-0.341c-0.59-0.221-1.1-0.54-1.54-0.96
	c-0.439-0.421-0.779-0.931-1.039-1.55c-0.25-0.621-0.381-1.32-0.381-2.11v-3.771c0-0.75,0.131-1.42,0.381-2.029
	c0.26-0.6,0.6-1.12,1.039-1.561c0.44-0.439,0.95-0.771,1.54-1.01c0.591-0.23,1.22-0.352,1.88-0.352c0.601,0,1.17,0.102,1.711,0.301
	c0.549,0.189,1.039,0.48,1.459,0.852c0.431,0.379,0.791,0.84,1.08,1.379c0.291,0.551,0.49,1.18,0.59,1.891h-1.77
	c-0.141-0.83-0.46-1.471-0.949-1.92c-0.49-0.461-1.221-0.689-2.201-0.689c-0.899,0-1.59,0.18-2.06,0.551
	c-0.479,0.369-0.79,0.879-0.931,1.529c-0.02,0.141-0.039,0.359-0.059,0.68c-0.021,0.321-0.041,0.641-0.051,0.971
	s-0.02,0.641-0.02,0.939c0,0.141,0,0.35,0.01,0.641c0.01,0.3,0.01,0.64,0.02,1.021c0,0.39,0.021,0.729,0.041,1.011
	c0.02,0.289,0.029,0.479,0.039,0.58c0.141,0.659,0.45,1.188,0.93,1.568c0.471,0.381,1.211,0.57,2.201,0.57
	c0.729,0,1.309-0.11,1.729-0.33c0.42-0.211,0.739-0.5,0.95-0.87c0.22-0.37,0.359-0.81,0.41-1.319c0.06-0.5,0.09-1.04,0.09-1.619
	H64.49v-1.791h4.78V171.331z M80.75,168.4v1.812h-5.39v4.08h7.2v1.81h-8.99v-13.34h8.99v1.791h-7.2v3.85h5.39V168.4z M76.6,191.451
	c0.021,0.551,0.06,0.932,0.11,1.141c0.14,0.648,0.43,1.16,0.869,1.529c0.45,0.369,1.141,0.551,2.08,0.551
	c0.551,0,1.01-0.061,1.391-0.189c0.38-0.131,0.689-0.32,0.93-0.57c0.25-0.26,0.42-0.568,0.54-0.939
	c0.11-0.379,0.181-0.811,0.21-1.311h1.79c0,0.73-0.13,1.381-0.39,1.971s-0.621,1.1-1.061,1.529c-0.439,0.42-0.96,0.75-1.54,0.98
	c-0.59,0.229-1.21,0.34-1.87,0.34s-1.289-0.121-1.88-0.35c-0.59-0.24-1.1-0.57-1.54-1.012c-0.439-0.439-0.779-0.961-1.039-1.568
	c-0.25-0.611-0.381-1.291-0.381-2.021v-3.66c0-0.791,0.12-1.489,0.36-2.1c0.239-0.621,0.579-1.141,1-1.561
	c0.43-0.42,0.94-0.74,1.54-0.96c0.59-0.222,1.25-0.33,1.96-0.33c0.68,0,1.31,0.101,1.88,0.3c0.58,0.211,1.07,0.5,1.5,0.891
	s0.77,0.859,1.02,1.431c0.25,0.56,0.4,1.21,0.44,1.931h-1.79c-0.08-0.892-0.37-1.57-0.87-2.041c-0.5-0.47-1.25-0.699-2.239-0.699
	c-0.471,0-0.871,0.061-1.221,0.18c-0.34,0.12-0.63,0.279-0.859,0.49c-0.24,0.209-0.431,0.459-0.57,0.74
	c-0.141,0.279-0.24,0.58-0.301,0.91v0.02c-0.029,0.15-0.049,0.48-0.069,0.99s-0.03,1.059-0.03,1.67
	C76.57,190.33,76.58,190.91,76.6,191.451z M96.089,176.081H94.22l-2.68-5.789H88.77v5.789h-1.81v-13.37h5.51
	c0.52,0,1.01,0.09,1.48,0.29c0.459,0.199,0.859,0.47,1.209,0.81c0.34,0.34,0.61,0.75,0.811,1.211
	c0.189,0.459,0.289,0.959,0.289,1.479c0,0.438-0.069,0.858-0.219,1.261c-0.141,0.398-0.351,0.76-0.61,1.09
	c-0.261,0.319-0.56,0.6-0.91,0.84c-0.351,0.229-0.74,0.399-1.16,0.5L96.089,176.081z M98.14,191.58c0,0.791-0.131,1.49-0.381,2.111
	c-0.26,0.619-0.609,1.129-1.049,1.549c-0.451,0.42-0.961,0.74-1.541,0.961c-0.59,0.23-1.219,0.342-1.89,0.342
	c-0.659,0-1.29-0.111-1.88-0.342c-0.59-0.221-1.1-0.541-1.54-0.961s-0.78-0.93-1.04-1.549c-0.25-0.621-0.38-1.32-0.38-2.111v-3.77
	c0-0.75,0.13-1.42,0.38-2.029c0.26-0.6,0.6-1.12,1.04-1.561c0.44-0.439,0.95-0.771,1.54-1.01c0.59-0.23,1.221-0.352,1.88-0.352
	c0.671,0,1.3,0.121,1.89,0.352c0.58,0.239,1.09,0.568,1.541,1.01c0.439,0.439,0.789,0.961,1.049,1.561
	c0.25,0.609,0.381,1.279,0.381,2.029V191.58z M84.589,153.56c-0.35,1-0.84,1.711-1.479,2.15c-0.601,0.41-1.601,0.7-3.13,0.92
	c-0.96,0.141-1.74,0.21-2.38,0.21c-0.58,0-1.04-0.06-1.41-0.17c-0.62-0.2-1.47-0.72-1.96-2.05l-15.91-39.66
	c-0.49-1.25-1.05-2.26-1.66-3.02c-0.74-0.93-1.199-1.311-1.459-1.461c-0.57-0.34-1.061-0.75-1.461-1.209
	c-0.5-0.57-0.75-1.271-0.75-2.101c0-1.44,0.75-2.149,1.391-2.489c0.729-0.4,1.85-0.59,3.43-0.59H69.4c3.88,0,4.46,1.889,4.46,3.01
	c0,1.049-0.53,1.97-1.55,2.75c-0.68,0.5-1.189,1-1.51,1.459c-0.01,0.011-0.271,0.561,0.43,3.011l10.689,27.239l10.461-27.609
	c0.689-2.381,0.479-2.95,0.47-2.971c-0.229-0.439-0.62-0.92-1.16-1.42c-0.83-0.76-1.25-1.619-1.25-2.529c0-1.07,0.55-2.87,4.24-2.87
	h6.479c2.811,0,4.03,0.78,4.5,1.7c1.541-1.23,3.211-1.85,4.98-1.85h0.199c1.561,0.059,2.871,0.619,3.92,1.67
	c1.051,1.049,1.591,2.35,1.591,3.869c-0.06,2.041-1.03,3.87-2.87,5.44c-1.76,1.5-3.68,2.26-5.721,2.26h-0.219
	c-1.611-0.06-2.931-0.61-3.9-1.649c-0.98-1.041-1.45-2.311-1.391-3.791c0.01-0.27,0.03-0.529,0.07-0.799
	c-0.3,0.25-0.619,0.569-0.96,0.939c-0.659,0.73-1.22,1.641-1.649,2.73L84.589,153.56z M107.75,168.4v1.812h-5.39v4.08h7.2v1.81
	h-8.99v-13.34h8.99v1.791h-7.2v3.85h5.39V168.4z M111.951,196.351h-3.541l-3.72-11.531h-0.46v11.531h-1.79v-13.34h3.55l3.711,11.568
	h0.459v-11.568h1.791V196.351z M115.75,164.57v11.531h-1.789v-13.34h3.539l3.721,11.568h0.449v-11.568h1.791v13.34h-3.541
	l-3.709-11.531H115.75z M126.35,191.81c0,0.631-0.11,1.211-0.33,1.77c-0.229,0.553-0.53,1.031-0.92,1.432
	c-0.39,0.41-0.851,0.729-1.38,0.971c-0.53,0.25-1.11,0.369-1.73,0.369h-5.34v-13.319h5.15c0.63,0,1.229,0.12,1.779,0.351
	c0.551,0.239,1.03,0.561,1.44,0.971c0.399,0.42,0.729,0.899,0.97,1.439c0.24,0.551,0.36,1.141,0.36,1.77V191.81L126.35,191.81z
	 M128.169,173.3c-0.26-0.609-0.379-1.289-0.379-2.021v-3.659c0-0.79,0.119-1.489,0.359-2.101c0.24-0.619,0.57-1.14,1-1.56
	c0.42-0.42,0.939-0.739,1.53-0.96c0.6-0.221,1.25-0.33,1.97-0.33c0.68,0,1.311,0.1,1.88,0.301c0.57,0.209,1.07,0.5,1.5,0.889
	c0.421,0.392,0.761,0.861,1.021,1.432c0.25,0.561,0.4,1.21,0.43,1.93h-1.79c-0.069-0.891-0.36-1.57-0.86-2.039
	c-0.51-0.471-1.25-0.701-2.24-0.701c-0.469,0-0.879,0.062-1.219,0.181c-0.341,0.12-0.631,0.28-0.871,0.489
	c-0.229,0.211-0.42,0.461-0.56,0.74c-0.14,0.28-0.239,0.58-0.3,0.91v0.02c-0.03,0.15-0.051,0.48-0.07,0.99s-0.029,1.061-0.029,1.67
	c0,0.601,0.01,1.181,0.029,1.721c0.02,0.551,0.051,0.931,0.1,1.141c0.141,0.648,0.431,1.16,0.881,1.529
	c0.439,0.369,1.14,0.551,2.08,0.551c0.539,0,1.01-0.061,1.39-0.189s0.69-0.32,0.931-0.57c0.239-0.26,0.42-0.569,0.529-0.939
	c0.12-0.38,0.189-0.811,0.21-1.311h1.79c0,0.73-0.13,1.381-0.391,1.971c-0.26,0.59-0.609,1.1-1.049,1.529
	c-0.451,0.42-0.961,0.75-1.551,0.98c-0.58,0.229-1.199,0.34-1.859,0.34s-1.291-0.121-1.881-0.351
	c-0.59-0.239-1.109-0.569-1.539-1.011C128.77,174.431,128.419,173.911,128.169,173.3z M139.97,191.58
	c0,0.791-0.131,1.49-0.381,2.111c-0.26,0.619-0.6,1.129-1.049,1.549c-0.44,0.42-0.961,0.74-1.541,0.961
	c-0.59,0.23-1.209,0.342-1.89,0.342c-0.659,0-1.28-0.111-1.87-0.342c-0.59-0.221-1.109-0.541-1.55-0.961
	c-0.431-0.42-0.78-0.93-1.03-1.549c-0.26-0.621-0.39-1.32-0.39-2.111v-3.77c0-0.75,0.13-1.42,0.39-2.029
	c0.25-0.6,0.6-1.12,1.03-1.561c0.44-0.439,0.96-0.771,1.55-1.01c0.59-0.23,1.211-0.352,1.87-0.352c0.681,0,1.3,0.121,1.89,0.352
	c0.58,0.239,1.101,0.568,1.541,1.01c0.449,0.439,0.789,0.961,1.049,1.561c0.25,0.609,0.381,1.279,0.381,2.029V191.58z
	 M121.541,156.5c-1.58,0-2.381-0.63-2.781-1.21c-0.549,0.66-1.609,1.21-3.629,1.21H104.83c-3.75,0-4.31-1.8-4.31-2.87
	c0-0.93,0.28-1.71,0.83-2.33c0.45-0.5,0.93-0.91,1.45-1.23c0.09-0.049,0.4-0.299,0.82-1.299c0.33-0.78,0.5-1.891,0.5-3.28
	l-0.07-13.25c0-0.95-0.15-1.761-0.45-2.39c-0.36-0.781-0.681-1.07-0.83-1.17c-0.49-0.33-0.94-0.701-1.351-1.101
	c-0.539-0.55-0.83-1.229-0.83-1.97c0-0.76,0.281-1.41,0.791-1.891c0.399-0.359,1.06-0.76,2.09-1.25c1.449-0.72,3.279-1.459,5.4-2.17
	c2.92-0.97,3.84-1.09,4.319-1.09c0.021,0,0.11-0.01,0.21-0.01c1.051,0,1.63,0.48,1.92,0.88c0.4,0.55,0.6,1.3,0.6,2.29l-0.08,9.87
	v13.25c0,1.399,0.16,2.51,0.471,3.3c0.391,0.98,0.699,1.23,0.779,1.279c0.531,0.33,1.021,0.771,1.451,1.311
	c0.189,0.24,0.34,0.5,0.459,0.78c0.051-0.08,18.931-25.771,18.931-25.771h-3.64c-3.631,0-7.061,1.78-10.211,5.291
	c-0.99,1.08-2,1.629-2.99,1.629c-0.369,0-0.739-0.08-1.09-0.22c-1.27-0.56-1.68-1.95-1.24-4.149c0.471-1.57,1.181-3.4,2.16-5.541
	c0.49-1.199,1.07-2.06,1.771-2.609c0.74-0.58,1.75-0.859,3.101-0.859H151c1.721,0,2.51,0.739,2.881,1.359
	c0.379,0.66,0.6,1.75-0.51,3.2l-18.761,25.54h4.79c3.67,0,6.75-1.86,9.41-5.69c0.96-1.42,2.029-2.14,3.189-2.14
	c0.23,0,0.451,0.029,0.681,0.08l0.09,0.029c1.771,0.641,1.421,3.19,1.3,4.03c-0.189,1.72-0.67,3.771-1.4,6.08
	c-1.01,3.37-3.149,4.08-4.77,4.08H121.541L121.541,156.5z M141.41,174.31h1.6v-9.76h-1.6v-1.789h4.99v1.789h-1.6v9.76h1.6v1.791
	h-4.99V174.31z M157.419,196.351h-1.809V184.82h-0.23l-3.051,11.531H149.3l-2.99-11.531h-0.23v11.531h-1.799v-13.32h3.459
	l2.971,11.512h0.209l3.051-11.512h3.449V196.351z M159.691,164.55h-7.201v3.85h5.4v1.812h-5.4v4.08h7.201v1.81h-8.99v-13.34h8.99
	V164.55z M166.71,184.8h-1.59v9.76h1.59v1.791h-4.99v-1.791h1.6v-9.76h-1.6v-1.789h4.99V184.8z M180.531,196.351h-3.551
	l-3.711-11.531h-0.461v11.531h-1.789v-13.34h3.539l3.723,11.568h0.459v-11.568h1.791V196.351L180.531,196.351z M181.541,172.25
	c-0.01,0.271-0.061,0.619-0.15,1.069c-0.09,0.439-0.291,0.88-0.6,1.3c-0.311,0.431-0.76,0.79-1.35,1.11
	c-0.592,0.311-1.4,0.459-2.41,0.459c-0.781,0-1.48-0.1-2.111-0.31c-0.639-0.21-1.18-0.511-1.619-0.909
	c-0.43-0.392-0.77-0.871-1.01-1.441c-0.25-0.579-0.371-1.219-0.371-1.949v-0.26h1.781c0.1,1.061,0.42,1.84,0.959,2.33
	c0.541,0.49,1.26,0.729,2.18,0.729c0.33,0,0.67-0.021,1.01-0.069c0.342-0.051,0.65-0.16,0.932-0.311
	c0.279-0.15,0.51-0.359,0.689-0.62c0.182-0.261,0.262-0.601,0.262-1.021c0-0.621-0.182-1.09-0.541-1.42
	c-0.359-0.32-0.811-0.58-1.352-0.78c-0.539-0.188-1.129-0.359-1.76-0.5c-0.641-0.14-1.23-0.341-1.771-0.591
	c-0.527-0.26-0.988-0.608-1.35-1.049c-0.361-0.441-0.539-1.07-0.539-1.871c0-0.56,0.1-1.06,0.299-1.5
	c0.211-0.449,0.49-0.819,0.861-1.129c0.369-0.301,0.809-0.531,1.34-0.69c0.52-0.159,1.09-0.239,1.729-0.239
	c1.311,0,2.359,0.34,3.16,1.02c0.801,0.682,1.23,1.67,1.301,2.961h-1.779c-0.141-0.801-0.432-1.359-0.871-1.689
	c-0.449-0.33-1.029-0.5-1.75-0.5c-0.729,0-1.32,0.141-1.789,0.43c-0.461,0.291-0.689,0.711-0.689,1.291c0,0.479,0.18,0.85,0.551,1.1
	c0.369,0.261,0.83,0.471,1.379,0.65c0.551,0.178,1.148,0.35,1.791,0.51c0.639,0.17,1.238,0.399,1.77,0.689
	c0.539,0.29,0.98,0.68,1.32,1.148c0.34,0.48,0.5,1.102,0.5,1.881V172.25L181.541,172.25z M156.25,156.5
	c-1.719,0-2.52-0.739-2.879-1.36c-0.381-0.66-0.611-1.75,0.5-3.199l18.77-25.551H169c-3.619,0-7.059,1.78-10.199,5.291
	c-1,1.08-2,1.629-3,1.629c-0.371,0-0.74-0.08-1.09-0.219c-1.271-0.561-1.681-1.951-1.24-4.15c0.471-1.57,1.189-3.4,2.16-5.541
	c0.49-1.199,1.07-2.059,1.77-2.609c0.74-0.58,1.75-0.859,3.1-0.859h25.211c1.719,0,2.51,0.739,2.879,1.359
	c0.381,0.66,0.602,1.75-0.5,3.2l-18.77,25.54h4.791c3.67,0,6.75-1.86,9.408-5.689c0.961-1.421,2.039-2.141,3.189-2.141
	c0.23,0,0.461,0.029,0.68,0.08l0.092,0.029c1.779,0.641,1.42,3.19,1.311,4.031c-0.201,1.729-0.68,3.779-1.41,6.079
	c-1,3.37-3.148,4.08-4.77,4.08H156.25z M193.05,168.4v1.812h-5.391v4.08h7.201v1.81h-8.99v-13.34h8.99v1.791h-7.201v3.85h5.391
	V168.4z M189.839,184.8h-1.6v9.76h1.6v1.791h-4.99v-1.791h1.602v-9.76h-1.602v-1.789h4.99V184.8z M203.46,191.58
	c0,0.791-0.131,1.49-0.381,2.111c-0.25,0.619-0.6,1.129-1.049,1.549c-0.441,0.42-0.961,0.74-1.541,0.961
	c-0.58,0.23-1.209,0.342-1.891,0.342c-0.658,0-1.279-0.111-1.869-0.342c-0.592-0.221-1.109-0.541-1.551-0.961
	c-0.43-0.42-0.779-0.93-1.029-1.549c-0.262-0.621-0.381-1.32-0.381-2.111v-3.77c0-0.75,0.119-1.42,0.381-2.029
	c0.25-0.6,0.6-1.12,1.029-1.561c0.439-0.439,0.959-0.771,1.551-1.01c0.59-0.23,1.211-0.352,1.869-0.352
	c0.682,0,1.311,0.121,1.891,0.352c0.58,0.239,1.1,0.568,1.541,1.01c0.449,0.439,0.799,0.961,1.049,1.561
	c0.25,0.609,0.381,1.279,0.381,2.029V191.58z M208.9,176.101h-9.641v-13.34h1.789v11.549h6.063v-11.549h1.789V176.101L208.9,176.101
	z M221.371,151.5c-3.9,3.79-8.9,5.72-14.852,5.72c-5.141,0-9.449-1.619-12.818-4.81c-3.393-3.21-5.111-7.53-5.111-12.83
	c0-5.681,2.021-10.54,5.99-14.46s8.979-5.91,14.891-5.91c5.15,0,9.449,1.721,12.779,5.131c3.32,3.389,5,7.699,5,12.789
	C227.25,142.861,225.269,147.691,221.371,151.5z"/>
<path fill="#FFFFFF" d="M203.08,185.781c-0.25-0.6-0.6-1.12-1.049-1.561c-0.441-0.439-0.961-0.771-1.541-1.01
	c-0.58-0.23-1.209-0.352-1.891-0.352c-0.658,0-1.279,0.121-1.869,0.352c-0.592,0.239-1.109,0.568-1.551,1.01
	c-0.43,0.439-0.779,0.961-1.029,1.561c-0.262,0.609-0.381,1.279-0.381,2.029v3.77c0,0.791,0.119,1.49,0.381,2.111
	c0.25,0.619,0.6,1.129,1.029,1.549c0.439,0.42,0.959,0.74,1.551,0.961c0.59,0.23,1.211,0.342,1.869,0.342
	c0.682,0,1.311-0.111,1.891-0.342c0.58-0.221,1.1-0.541,1.541-0.961c0.449-0.42,0.799-0.93,1.049-1.549
	c0.25-0.621,0.381-1.32,0.381-2.111v-3.77C203.46,187.06,203.33,186.39,203.08,185.781z M201.701,191.001
	c-0.01,0.389-0.021,0.729-0.031,1.01c-0.01,0.289-0.029,0.479-0.059,0.58c-0.143,0.66-0.441,1.188-0.91,1.568
	c-0.471,0.381-1.182,0.57-2.131,0.57c-0.939,0-1.641-0.189-2.08-0.57c-0.449-0.381-0.74-0.908-0.879-1.568v-0.012
	c-0.012-0.109-0.031-0.301-0.041-0.59c-0.021-0.279-0.039-0.609-0.039-1c-0.012-0.381-0.012-0.791-0.012-1.221
	c0-0.439,0-0.859,0.012-1.26c0-0.4,0.02-0.76,0.049-1.08c0.02-0.32,0.041-0.539,0.07-0.68c0.141-0.65,0.43-1.16,0.881-1.529
	c0.438-0.371,1.129-0.551,2.068-0.551s1.641,0.189,2.092,0.561c0.447,0.379,0.75,0.879,0.889,1.521
	c0.031,0.14,0.061,0.358,0.08,0.681c0.02,0.32,0.031,0.68,0.041,1.08c0.01,0.398,0.01,0.818,0.01,1.26
	C201.71,190.201,201.71,190.621,201.701,191.001z"/>
<polygon fill="#FFFFFF" points="188.24,184.8 188.24,194.56 189.839,194.56 189.839,196.351 184.849,196.351 184.849,194.56 
	186.451,194.56 186.451,184.8 184.849,184.8 184.849,183.011 189.839,183.011 189.839,184.8 "/>
<polygon fill="#FFFFFF" points="180.531,183.011 180.531,196.351 176.98,196.351 173.269,184.82 172.81,184.82 172.81,196.351 
	171.019,196.351 171.019,183.011 174.56,183.011 178.281,194.58 178.74,194.58 178.74,183.011 "/>
<polygon fill="#FFFFFF" points="165.121,184.8 165.121,194.56 166.71,194.56 166.71,196.351 161.72,196.351 161.72,194.56 
	163.32,194.56 163.32,184.8 161.72,184.8 161.72,183.011 166.71,183.011 166.71,184.8 "/>
<polygon fill="#FFFFFF" points="157.419,183.031 157.419,196.351 155.611,196.351 155.611,184.82 155.38,184.82 152.33,196.351 
	149.3,196.351 146.31,184.82 146.08,184.82 146.08,196.351 144.28,196.351 144.28,183.031 147.74,183.031 150.71,194.541 
	150.919,194.541 153.97,183.031 "/>
<path fill="#FFFFFF" d="M139.589,185.781c-0.26-0.6-0.6-1.12-1.049-1.561c-0.44-0.439-0.961-0.771-1.541-1.01
	c-0.59-0.23-1.209-0.352-1.89-0.352c-0.659,0-1.28,0.121-1.87,0.352c-0.59,0.239-1.109,0.568-1.55,1.01
	c-0.431,0.439-0.78,0.961-1.03,1.561c-0.26,0.609-0.39,1.279-0.39,2.029v3.77c0,0.791,0.13,1.49,0.39,2.111
	c0.25,0.619,0.6,1.129,1.03,1.549c0.44,0.42,0.96,0.74,1.55,0.961c0.59,0.23,1.211,0.342,1.87,0.342c0.681,0,1.3-0.111,1.89-0.342
	c0.58-0.221,1.101-0.541,1.541-0.961c0.449-0.42,0.789-0.93,1.049-1.549c0.25-0.621,0.381-1.32,0.381-2.111v-3.77
	C139.97,187.06,139.839,186.39,139.589,185.781z M138.21,191.001c-0.01,0.389-0.021,0.729-0.03,1.01
	c-0.011,0.289-0.03,0.479-0.06,0.58c-0.141,0.66-0.44,1.188-0.91,1.568c-0.471,0.381-1.181,0.57-2.141,0.57
	c-0.939,0-1.63-0.189-2.07-0.57c-0.449-0.381-0.74-0.908-0.879-1.568v-0.012c-0.011-0.109-0.031-0.301-0.051-0.59
	c-0.01-0.279-0.029-0.609-0.029-1c-0.011-0.381-0.011-0.791-0.011-1.221c0-0.439,0-0.859,0.011-1.26c0-0.4,0.02-0.76,0.039-1.08
	c0.03-0.32,0.051-0.539,0.08-0.68c0.141-0.65,0.43-1.16,0.881-1.529c0.439-0.371,1.129-0.551,2.069-0.551s1.64,0.189,2.091,0.561
	c0.449,0.379,0.739,0.879,0.879,1.521c0.041,0.14,0.07,0.358,0.09,0.681c0.021,0.32,0.031,0.68,0.041,1.08
	c0,0.398,0.01,0.818,0.01,1.26C138.22,190.201,138.21,190.621,138.21,191.001z"/>
<path fill="#FFFFFF" d="M125.99,185.791c-0.24-0.54-0.57-1.021-0.97-1.439c-0.41-0.41-0.89-0.73-1.44-0.971
	c-0.55-0.23-1.149-0.352-1.779-0.352h-5.15v13.32h5.34c0.62,0,1.2-0.119,1.73-0.369c0.529-0.24,0.99-0.561,1.38-0.971
	c0.39-0.4,0.69-0.879,0.92-1.432c0.22-0.559,0.33-1.139,0.33-1.77v-4.25C126.35,186.931,126.23,186.34,125.99,185.791z
	 M124.56,191.81c0,0.84-0.25,1.51-0.73,2c-0.49,0.5-1.17,0.75-2.029,0.75h-3.36v-9.76h3.45c0.85,0,1.51,0.26,1.97,0.76
	c0.47,0.51,0.7,1.181,0.7,2V191.81L124.56,191.81z"/>
<polygon fill="#FFFFFF" points="111.951,183.011 111.951,196.351 108.41,196.351 104.69,184.82 104.23,184.82 104.23,196.351 
	102.44,196.351 102.44,183.011 105.99,183.011 109.701,194.58 110.16,194.58 110.16,183.011 "/>
<path fill="#FFFFFF" d="M97.759,185.781c-0.26-0.6-0.609-1.12-1.049-1.561c-0.451-0.439-0.961-0.771-1.541-1.01
	c-0.59-0.23-1.219-0.352-1.89-0.352c-0.659,0-1.29,0.121-1.88,0.352c-0.59,0.239-1.1,0.568-1.54,1.01
	c-0.44,0.439-0.78,0.961-1.04,1.561c-0.25,0.609-0.38,1.279-0.38,2.029v3.77c0,0.791,0.13,1.49,0.38,2.111
	c0.26,0.619,0.6,1.129,1.04,1.549s0.95,0.74,1.54,0.961c0.59,0.23,1.221,0.342,1.88,0.342c0.671,0,1.3-0.111,1.89-0.342
	c0.58-0.221,1.09-0.541,1.541-0.961c0.439-0.42,0.789-0.93,1.049-1.549c0.25-0.621,0.381-1.32,0.381-2.111v-3.77
	C98.14,187.06,98.009,186.39,97.759,185.781z M96.38,191.001c-0.01,0.389-0.021,0.729-0.03,1.01c-0.021,0.289-0.03,0.479-0.06,0.58
	c-0.141,0.66-0.44,1.188-0.91,1.568c-0.471,0.381-1.19,0.57-2.141,0.57c-0.939,0-1.63-0.189-2.07-0.57
	c-0.449-0.381-0.739-0.908-0.879-1.568v-0.012c-0.011-0.109-0.031-0.301-0.051-0.59c-0.02-0.279-0.029-0.609-0.039-1
	c0-0.381-0.011-0.791-0.011-1.221c0-0.439,0.011-0.859,0.011-1.26c0.01-0.4,0.029-0.76,0.049-1.08c0.03-0.32,0.051-0.539,0.08-0.68
	c0.141-0.65,0.43-1.16,0.871-1.529c0.449-0.371,1.139-0.551,2.079-0.551s1.64,0.189,2.091,0.561
	c0.449,0.379,0.739,0.879,0.879,1.521c0.041,0.14,0.07,0.358,0.09,0.681c0.021,0.32,0.031,0.68,0.041,1.08
	c0,0.398,0.01,0.818,0.01,1.26C96.39,190.201,96.38,190.621,96.38,191.001z"/>
<path fill="#FFFFFF" d="M82.73,191.66h1.79c0,0.73-0.13,1.383-0.39,1.973s-0.621,1.1-1.061,1.527c-0.439,0.422-0.96,0.75-1.54,0.98
	c-0.59,0.229-1.21,0.34-1.87,0.34s-1.289-0.119-1.88-0.35c-0.59-0.24-1.1-0.57-1.54-1.012c-0.439-0.438-0.779-0.959-1.039-1.568
	c-0.25-0.609-0.381-1.289-0.381-2.021v-3.66c0-0.789,0.12-1.488,0.36-2.1c0.239-0.619,0.579-1.14,1-1.56
	c0.43-0.42,0.94-0.739,1.54-0.96c0.59-0.221,1.25-0.33,1.96-0.33c0.68,0,1.31,0.1,1.88,0.301c0.58,0.209,1.07,0.5,1.5,0.889
	c0.43,0.392,0.77,0.861,1.02,1.432c0.25,0.561,0.4,1.21,0.44,1.93h-1.79c-0.08-0.891-0.37-1.57-0.87-2.039
	c-0.5-0.471-1.25-0.701-2.239-0.701c-0.471,0-0.871,0.062-1.221,0.181c-0.34,0.12-0.63,0.28-0.859,0.489
	c-0.24,0.211-0.431,0.461-0.57,0.74c-0.141,0.28-0.24,0.58-0.301,0.91v0.02c-0.029,0.15-0.049,0.48-0.069,0.99
	s-0.03,1.061-0.03,1.67c0,0.6,0.01,1.18,0.03,1.721c0.021,0.551,0.06,0.932,0.11,1.141c0.14,0.648,0.43,1.16,0.869,1.529
	c0.45,0.369,1.141,0.551,2.08,0.551c0.551,0,1.01-0.061,1.391-0.189c0.38-0.131,0.689-0.32,0.93-0.57
	c0.25-0.26,0.42-0.568,0.54-0.939C82.63,192.591,82.701,192.16,82.73,191.66z"/>
<polygon fill="#FFFFFF" points="123.46,162.761 123.46,176.101 119.919,176.101 116.21,164.57 115.75,164.57 115.75,176.101 
	113.96,176.101 113.96,162.761 117.5,162.761 121.22,174.331 121.669,174.331 121.669,162.761 "/>
<path fill="#FFFFFF" d="M135.69,171.411h1.79c0,0.729-0.13,1.381-0.391,1.971c-0.26,0.591-0.609,1.101-1.049,1.529
	c-0.451,0.42-0.961,0.75-1.551,0.979c-0.58,0.229-1.199,0.34-1.859,0.34s-1.291-0.119-1.881-0.35c-0.59-0.24-1.109-0.57-1.539-1.011
	c-0.44-0.438-0.791-0.96-1.041-1.569c-0.26-0.609-0.379-1.289-0.379-2.021v-3.66c0-0.79,0.119-1.489,0.359-2.101
	c0.24-0.619,0.57-1.14,1-1.56c0.42-0.42,0.939-0.739,1.53-0.96c0.6-0.221,1.25-0.33,1.97-0.33c0.68,0,1.311,0.1,1.88,0.301
	c0.57,0.209,1.07,0.5,1.5,0.889c0.421,0.392,0.761,0.861,1.021,1.432c0.25,0.561,0.4,1.21,0.43,1.93h-1.79
	c-0.069-0.891-0.36-1.57-0.86-2.039c-0.51-0.471-1.25-0.701-2.24-0.701c-0.469,0-0.879,0.062-1.219,0.181
	c-0.341,0.12-0.631,0.28-0.871,0.489c-0.229,0.211-0.42,0.461-0.56,0.74c-0.14,0.28-0.239,0.58-0.3,0.91v0.02
	c-0.03,0.15-0.051,0.48-0.07,0.99s-0.029,1.061-0.029,1.67c0,0.601,0.01,1.181,0.029,1.721c0.02,0.551,0.051,0.931,0.1,1.141
	c0.141,0.649,0.431,1.16,0.881,1.529c0.439,0.37,1.14,0.551,2.08,0.551c0.539,0,1.01-0.061,1.39-0.189s0.69-0.32,0.931-0.57
	c0.239-0.26,0.42-0.569,0.529-0.939C135.6,172.34,135.669,171.911,135.69,171.411z"/>
<polygon fill="#FFFFFF" points="144.8,164.55 144.8,174.31 146.4,174.31 146.4,176.101 141.41,176.101 141.41,174.31 
	143.009,174.31 143.009,164.55 141.41,164.55 141.41,162.761 146.4,162.761 146.4,164.55 "/>
<polygon fill="#FFFFFF" points="152.49,164.55 152.49,168.4 157.89,168.4 157.89,170.21 152.49,170.21 152.49,174.291 
	159.691,174.291 159.691,176.101 150.701,176.101 150.701,162.761 159.691,162.761 159.691,164.55 "/>
<path fill="#FFFFFF" d="M181.541,172.081v0.171c-0.01,0.27-0.061,0.619-0.15,1.068c-0.09,0.441-0.291,0.881-0.6,1.301
	c-0.311,0.432-0.76,0.79-1.35,1.109c-0.592,0.312-1.4,0.461-2.41,0.461c-0.781,0-1.48-0.101-2.111-0.311
	c-0.639-0.21-1.18-0.511-1.619-0.91c-0.43-0.391-0.77-0.869-1.01-1.439c-0.25-0.58-0.371-1.221-0.371-1.95v-0.261h1.781
	c0.1,1.062,0.42,1.841,0.959,2.33c0.541,0.49,1.26,0.73,2.18,0.73c0.33,0,0.67-0.021,1.01-0.07c0.342-0.05,0.65-0.16,0.932-0.31
	c0.279-0.149,0.51-0.36,0.689-0.62c0.182-0.261,0.262-0.602,0.262-1.021c0-0.619-0.182-1.09-0.541-1.42
	c-0.359-0.319-0.811-0.58-1.352-0.779c-0.539-0.189-1.129-0.359-1.76-0.5c-0.641-0.141-1.23-0.34-1.771-0.59
	c-0.527-0.26-0.988-0.609-1.35-1.051c-0.361-0.44-0.539-1.07-0.539-1.869c0-0.561,0.1-1.061,0.299-1.5
	c0.211-0.451,0.49-0.82,0.861-1.131c0.369-0.299,0.809-0.529,1.34-0.689c0.52-0.159,1.09-0.239,1.729-0.239
	c1.311,0,2.359,0.341,3.16,1.021c0.801,0.681,1.23,1.67,1.301,2.959h-1.779c-0.141-0.799-0.432-1.358-0.871-1.688
	c-0.449-0.33-1.029-0.5-1.75-0.5c-0.729,0-1.32,0.14-1.789,0.431c-0.461,0.289-0.689,0.709-0.689,1.289
	c0,0.479,0.18,0.851,0.551,1.101c0.369,0.261,0.83,0.471,1.379,0.649c0.551,0.18,1.148,0.351,1.791,0.51
	c0.639,0.17,1.238,0.4,1.77,0.69c0.539,0.29,0.98,0.681,1.32,1.149C181.38,170.681,181.541,171.3,181.541,172.081z"/>
<polygon fill="#FFFFFF" points="187.66,164.55 187.66,168.4 193.05,168.4 193.05,170.21 187.66,170.21 187.66,174.291 
	194.861,174.291 194.861,176.101 185.871,176.101 185.871,162.761 194.861,162.761 194.861,164.55 "/>
<polygon fill="#FFFFFF" points="208.9,162.761 208.9,176.101 199.259,176.101 199.259,162.761 201.05,162.761 201.05,174.31 
	207.111,174.31 207.111,162.761 "/>
<polygon fill="#FFFFFF" points="102.36,164.55 102.36,168.4 107.75,168.4 107.75,170.21 102.36,170.21 102.36,174.291 
	109.56,174.291 109.56,176.101 100.57,176.101 100.57,162.761 109.56,162.761 109.56,164.55 "/>
<path fill="#FFFFFF" d="M94.52,169.691c0.351-0.24,0.649-0.521,0.91-0.84c0.26-0.33,0.47-0.69,0.61-1.09
	c0.149-0.4,0.219-0.82,0.219-1.261c0-0.521-0.1-1.021-0.289-1.479c-0.2-0.461-0.471-0.871-0.811-1.211
	c-0.35-0.34-0.75-0.609-1.209-0.81c-0.471-0.2-0.961-0.29-1.48-0.29h-5.51v13.369h1.81v-5.789h2.771l2.68,5.789h1.869l-2.729-5.891
	C93.78,170.09,94.169,169.92,94.52,169.691z M92.47,168.5h-3.7v-4h3.7c0.27,0,0.52,0.05,0.76,0.149c0.24,0.101,0.46,0.24,0.641,0.43
	c0.18,0.182,0.33,0.391,0.43,0.641c0.1,0.24,0.15,0.5,0.15,0.78c0,0.278-0.051,0.54-0.15,0.778c-0.1,0.24-0.25,0.451-0.43,0.631
	c-0.181,0.17-0.4,0.32-0.641,0.42C92.99,168.441,92.74,168.5,92.47,168.5z"/>
<polygon fill="#FFFFFF" points="75.36,164.55 75.36,168.4 80.75,168.4 80.75,170.21 75.36,170.21 75.36,174.291 82.56,174.291 
	82.56,176.101 73.57,176.101 73.57,162.761 82.56,162.761 82.56,164.55 "/>
<path fill="#FFFFFF" d="M69.27,168.55v2.779c0,0.79-0.13,1.49-0.38,2.109c-0.26,0.621-0.6,1.131-1.04,1.551s-0.95,0.74-1.54,0.96
	c-0.58,0.229-1.21,0.341-1.88,0.341c-0.671,0-1.31-0.109-1.9-0.341c-0.59-0.22-1.1-0.54-1.54-0.96
	c-0.439-0.42-0.779-0.93-1.039-1.551c-0.25-0.619-0.381-1.319-0.381-2.109v-3.77c0-0.75,0.131-1.42,0.381-2.031
	c0.26-0.6,0.6-1.119,1.039-1.559c0.44-0.441,0.95-0.771,1.54-1.011c0.591-0.229,1.22-0.351,1.88-0.351c0.601,0,1.17,0.101,1.711,0.3
	c0.549,0.19,1.039,0.479,1.459,0.851c0.431,0.381,0.791,0.84,1.08,1.381c0.291,0.549,0.49,1.18,0.59,1.889h-1.77
	c-0.141-0.829-0.46-1.469-0.949-1.92c-0.49-0.459-1.221-0.688-2.201-0.688c-0.899,0-1.59,0.181-2.06,0.55
	c-0.479,0.37-0.79,0.881-0.931,1.53c-0.02,0.14-0.039,0.358-0.059,0.681c-0.021,0.32-0.041,0.639-0.051,0.969s-0.02,0.642-0.02,0.94
	c0,0.14,0,0.351,0.01,0.64c0.01,0.301,0.01,0.641,0.02,1.021c0,0.391,0.021,0.729,0.041,1.01c0.02,0.291,0.029,0.479,0.039,0.58
	c0.141,0.66,0.45,1.189,0.93,1.569c0.471,0.381,1.211,0.569,2.201,0.569c0.729,0,1.309-0.109,1.729-0.33
	c0.42-0.209,0.739-0.5,0.95-0.869c0.22-0.37,0.359-0.811,0.41-1.319c0.06-0.5,0.09-1.04,0.09-1.62H64.49v-1.789h4.78V168.55z"/>
<path fill="#FFFFFF" d="M222.25,124.34c-3.33-3.409-7.629-5.13-12.779-5.13c-5.91,0-10.92,1.99-14.891,5.91
	c-3.969,3.92-5.99,8.779-5.99,14.46c0,5.3,1.721,9.62,5.111,12.83c3.369,3.19,7.68,4.81,12.818,4.81
	c5.949,0,10.949-1.93,14.852-5.72c3.898-3.81,5.879-8.64,5.879-14.37C227.25,132.041,225.57,127.73,222.25,124.34z M214.05,148.271
	c-1.01,1.479-2.461,2.189-4.43,2.189c-2.68,0-4.861-1.46-6.67-4.48c-1.893-3.14-2.852-6.84-2.852-11.01c0-2.63,0.539-4.85,1.619-6.6
	c0.99-1.62,2.461-2.41,4.512-2.41c2.609,0,4.77,1.57,6.578,4.79c1.9,3.36,2.861,7.2,2.861,11.42
	C215.669,144.65,215.121,146.701,214.05,148.271z"/>
<path fill="#FFFFFF" d="M188.791,146.34c-0.201,1.729-0.68,3.78-1.41,6.08c-1,3.37-3.148,4.08-4.77,4.08H156.25
	c-1.719,0-2.52-0.739-2.879-1.36c-0.381-0.66-0.611-1.75,0.5-3.199l18.77-25.551H169c-3.619,0-7.059,1.78-10.199,5.291
	c-1,1.08-2,1.629-3,1.629c-0.371,0-0.74-0.08-1.09-0.22c-1.271-0.56-1.681-1.95-1.24-4.149c0.471-1.57,1.189-3.4,2.16-5.541
	c0.49-1.199,1.07-2.06,1.77-2.609c0.74-0.58,1.75-0.859,3.1-0.859h25.211c1.719,0,2.51,0.739,2.879,1.359
	c0.381,0.66,0.602,1.75-0.5,3.2l-18.77,25.54h4.791c3.67,0,6.75-1.86,9.408-5.689c0.961-1.421,2.039-2.141,3.189-2.141
	c0.23,0,0.461,0.029,0.68,0.08l0.092,0.029C189.259,142.951,188.9,145.5,188.791,146.34z"/>
<path fill="#FFFFFF" d="M154.07,146.34c-0.189,1.72-0.67,3.771-1.4,6.08c-1.01,3.37-3.149,4.08-4.77,4.08h-26.359
	c-1.58,0-2.381-0.63-2.78-1.21c-0.55,0.66-1.61,1.21-3.63,1.21H104.83c-3.75,0-4.31-1.8-4.31-2.87c0-0.93,0.28-1.71,0.83-2.33
	c0.45-0.5,0.931-0.91,1.45-1.23c0.09-0.049,0.4-0.299,0.82-1.299c0.33-0.78,0.5-1.891,0.5-3.28l-0.07-13.25
	c0-0.95-0.15-1.761-0.45-2.39c-0.36-0.781-0.681-1.07-0.83-1.17c-0.489-0.33-0.94-0.701-1.351-1.101
	c-0.539-0.55-0.83-1.229-0.83-1.97c0-0.76,0.281-1.41,0.791-1.891c0.399-0.359,1.06-0.76,2.09-1.25c1.449-0.72,3.279-1.459,5.4-2.17
	c2.92-0.97,3.84-1.09,4.319-1.09c0.021,0,0.11-0.01,0.21-0.01c1.051,0,1.63,0.48,1.92,0.88c0.4,0.55,0.6,1.3,0.6,2.29l-0.08,9.869
	v13.25c0,1.4,0.16,2.511,0.471,3.301c0.391,0.98,0.7,1.23,0.779,1.279c0.531,0.33,1.021,0.771,1.451,1.311
	c0.189,0.24,0.34,0.5,0.459,0.78c0.051-0.08,18.931-25.771,18.931-25.771h-3.64c-3.631,0-7.061,1.78-10.211,5.291
	c-0.99,1.079-2,1.629-2.99,1.629c-0.369,0-0.739-0.08-1.09-0.22c-1.27-0.56-1.68-1.95-1.239-4.149c0.47-1.57,1.18-3.4,2.159-5.541
	c0.49-1.199,1.07-2.06,1.771-2.609c0.74-0.58,1.75-0.859,3.101-0.859H151c1.721,0,2.51,0.739,2.881,1.359
	c0.379,0.66,0.6,1.75-0.51,3.2l-18.761,25.54h4.79c3.67,0,6.75-1.86,9.41-5.69c0.96-1.42,2.029-2.14,3.189-2.14
	c0.23,0,0.451,0.029,0.681,0.08l0.09,0.029C154.541,142.951,154.191,145.5,154.07,146.34z"/>
<path fill="#FFFFFF" d="M116.35,109.55c-0.06,2.04-1.03,3.87-2.87,5.44c-1.76,1.5-3.68,2.26-5.721,2.26h-0.219
	c-1.61-0.06-2.931-0.61-3.9-1.649c-0.98-1.041-1.45-2.311-1.391-3.791c0.01-0.27,0.03-0.529,0.07-0.799
	c-0.3,0.25-0.619,0.569-0.96,0.939c-0.659,0.73-1.22,1.641-1.649,2.73L84.589,153.56c-0.35,1-0.84,1.711-1.479,2.15
	c-0.6,0.41-1.6,0.7-3.13,0.92c-0.96,0.141-1.74,0.211-2.38,0.211c-0.58,0-1.04-0.061-1.41-0.171c-0.62-0.2-1.47-0.72-1.96-2.05
	l-15.91-39.66c-0.49-1.25-1.05-2.26-1.66-3.02c-0.74-0.93-1.199-1.311-1.459-1.461c-0.57-0.34-1.061-0.75-1.461-1.209
	c-0.5-0.57-0.75-1.271-0.75-2.101c0-1.44,0.75-2.149,1.391-2.489c0.729-0.4,1.85-0.59,3.43-0.59H69.4c3.88,0,4.46,1.889,4.46,3.01
	c0,1.049-0.53,1.97-1.55,2.75c-0.68,0.5-1.189,1-1.51,1.459c-0.01,0.011-0.271,0.561,0.43,3.011l10.689,27.239l10.461-27.609
	c0.689-2.38,0.479-2.95,0.47-2.971c-0.229-0.439-0.62-0.92-1.16-1.42c-0.83-0.76-1.25-1.619-1.25-2.529c0-1.07,0.55-2.87,4.24-2.87
	h6.479c2.811,0,4.03,0.78,4.5,1.7c1.541-1.23,3.211-1.85,4.98-1.85h0.199c1.561,0.06,2.871,0.619,3.92,1.67
	C115.81,106.73,116.35,108.031,116.35,109.55z"/>
<path fill="#021BB9" d="M215.669,142.17c0,2.479-0.549,4.53-1.619,6.101c-1.01,1.479-2.461,2.189-4.43,2.189
	c-2.68,0-4.861-1.46-6.67-4.48c-1.893-3.14-2.852-6.84-2.852-11.01c0-2.63,0.539-4.85,1.619-6.6c0.99-1.62,2.461-2.41,4.512-2.41
	c2.609,0,4.77,1.57,6.578,4.79C214.71,134.111,215.669,137.951,215.669,142.17z"/>
<path fill="#021BB9" d="M201.71,189.771c0,0.43,0,0.85-0.01,1.23c-0.01,0.389-0.021,0.729-0.031,1.01
	c-0.01,0.289-0.029,0.479-0.059,0.58c-0.143,0.66-0.441,1.188-0.91,1.568c-0.471,0.381-1.182,0.57-2.131,0.57
	c-0.939,0-1.641-0.189-2.08-0.57c-0.449-0.381-0.74-0.908-0.879-1.568v-0.012c-0.012-0.109-0.031-0.301-0.041-0.59
	c-0.021-0.279-0.039-0.609-0.039-1c-0.012-0.381-0.012-0.791-0.012-1.221c0-0.439,0-0.859,0.012-1.26c0-0.4,0.02-0.76,0.049-1.08
	c0.02-0.32,0.041-0.539,0.07-0.68c0.141-0.65,0.43-1.16,0.881-1.529c0.438-0.371,1.129-0.551,2.068-0.551s1.641,0.189,2.092,0.561
	c0.447,0.379,0.75,0.879,0.889,1.521c0.031,0.14,0.061,0.358,0.08,0.681c0.02,0.32,0.031,0.68,0.041,1.08
	C201.71,188.91,201.71,189.33,201.71,189.771z"/>
<path fill="#021BB9" d="M94.451,166.5c0,0.278-0.051,0.54-0.15,0.778c-0.1,0.24-0.25,0.451-0.43,0.631
	c-0.181,0.17-0.4,0.32-0.641,0.42c-0.24,0.109-0.49,0.171-0.76,0.171h-3.7v-4h3.7c0.27,0,0.52,0.05,0.76,0.149
	c0.24,0.101,0.46,0.24,0.641,0.43c0.18,0.182,0.33,0.391,0.43,0.641C94.4,165.96,94.451,166.22,94.451,166.5z"/>
<path fill="#021BB9" d="M138.22,189.771c0,0.43-0.01,0.85-0.01,1.23c-0.01,0.389-0.021,0.729-0.03,1.01
	c-0.011,0.289-0.03,0.479-0.06,0.58c-0.141,0.66-0.44,1.188-0.91,1.568c-0.471,0.381-1.181,0.57-2.141,0.57
	c-0.939,0-1.63-0.189-2.07-0.57c-0.449-0.381-0.74-0.908-0.879-1.568v-0.012c-0.011-0.109-0.031-0.301-0.051-0.59
	c-0.01-0.279-0.029-0.609-0.029-1c-0.011-0.381-0.011-0.791-0.011-1.221c0-0.439,0-0.859,0.011-1.26c0-0.4,0.02-0.76,0.039-1.08
	c0.03-0.32,0.051-0.539,0.08-0.68c0.141-0.65,0.43-1.16,0.881-1.529c0.439-0.371,1.129-0.551,2.069-0.551s1.64,0.189,2.091,0.561
	c0.449,0.379,0.739,0.879,0.879,1.521c0.041,0.14,0.07,0.358,0.09,0.681c0.021,0.32,0.031,0.68,0.041,1.08
	C138.21,188.91,138.22,189.33,138.22,189.771z"/>
<path fill="#021BB9" d="M124.56,187.56v4.25c0,0.84-0.25,1.51-0.73,2c-0.49,0.5-1.17,0.75-2.029,0.75h-3.36v-9.76h3.45
	c0.85,0,1.51,0.26,1.97,0.76C124.33,186.07,124.56,186.741,124.56,187.56z"/>
<path fill="#021BB9" d="M96.39,189.771c0,0.43-0.01,0.85-0.01,1.23c-0.01,0.389-0.021,0.729-0.03,1.01
	c-0.021,0.289-0.03,0.479-0.06,0.58c-0.141,0.66-0.44,1.188-0.91,1.568c-0.471,0.381-1.19,0.57-2.141,0.57
	c-0.939,0-1.63-0.189-2.07-0.57c-0.449-0.381-0.739-0.908-0.879-1.568v-0.012c-0.011-0.109-0.031-0.301-0.051-0.59
	c-0.02-0.279-0.029-0.609-0.039-1c0-0.381-0.011-0.791-0.011-1.221c0-0.439,0.011-0.859,0.011-1.26c0.01-0.4,0.029-0.76,0.049-1.08
	c0.03-0.32,0.051-0.539,0.08-0.68c0.141-0.65,0.43-1.16,0.871-1.529c0.449-0.371,1.139-0.551,2.079-0.551s1.64,0.189,2.091,0.561
	c0.449,0.379,0.739,0.879,0.879,1.521c0.041,0.14,0.07,0.358,0.09,0.681c0.021,0.32,0.031,0.68,0.041,1.08
	C96.38,188.91,96.39,189.33,96.39,189.771z"/>
</svg>
